<svg width="25" height="25" viewBox="0 0 25 25" fill="none" xmlns="http://www.w3.org/2000/svg">
<path fill-rule="evenodd" clip-rule="evenodd" d="M21.2 9.09699V20.233C21.2 20.62 20.887 20.933 20.5 20.933H15.636H14.964H4.50001C4.11301 20.933 3.80001 20.62 3.80001 20.233V9.09699C3.80001 8.71099 4.11301 8.39699 4.50001 8.39699C4.88701 8.39699 5.20001 8.71099 5.20001 9.09699L5.20001 19.533H14.964H15.636H19.8V9.09699C19.8 8.71099 20.113 8.39699 20.5 8.39699C20.887 8.39699 21.2 8.71099 21.2 9.09699ZM8.60391 11.6159C8.78291 11.6159 8.96191 11.6839 9.09891 11.8209L11.8639 14.5849V4.76689C11.8639 4.38089 12.1769 4.06689 12.5639 4.06689C12.9509 4.06689 13.2639 4.38089 13.2639 4.76689V14.5849L16.0289 11.8209C16.1649 11.6839 16.3449 11.6159 16.5229 11.6159C16.7029 11.6159 16.8819 11.6839 17.0179 11.8209C17.2919 12.0949 17.2919 12.5389 17.0179 12.8109L13.0599 16.7679L13.0589 16.7699C12.9219 16.9069 12.7429 16.9749 12.5639 16.9749H12.5629C12.3839 16.9749 12.2049 16.9069 12.0679 16.7699V16.7679L8.10991 12.8109C7.97291 12.6749 7.90391 12.4959 7.90391 12.3159C7.90391 12.1369 7.97291 11.9579 8.10891 11.8209C8.24591 11.6839 8.42491 11.6159 8.60391 11.6159Z" fill="#999999"/>
<mask id="mask0" mask-type="alpha" maskUnits="userSpaceOnUse" x="3" y="4" width="19" height="17">
<path fill-rule="evenodd" clip-rule="evenodd" d="M21.2 9.09699V20.233C21.2 20.62 20.887 20.933 20.5 20.933H15.636H14.964H4.50001C4.11301 20.933 3.80001 20.62 3.80001 20.233V9.09699C3.80001 8.71099 4.11301 8.39699 4.50001 8.39699C4.88701 8.39699 5.20001 8.71099 5.20001 9.09699L5.20001 19.533H14.964H15.636H19.8V9.09699C19.8 8.71099 20.113 8.39699 20.5 8.39699C20.887 8.39699 21.2 8.71099 21.2 9.09699ZM8.60391 11.6159C8.78291 11.6159 8.96191 11.6839 9.09891 11.8209L11.8639 14.5849V4.76689C11.8639 4.38089 12.1769 4.06689 12.5639 4.06689C12.9509 4.06689 13.2639 4.38089 13.2639 4.76689V14.5849L16.0289 11.8209C16.1649 11.6839 16.3449 11.6159 16.5229 11.6159C16.7029 11.6159 16.8819 11.6839 17.0179 11.8209C17.2919 12.0949 17.2919 12.5389 17.0179 12.8109L13.0599 16.7679L13.0589 16.7699C12.9219 16.9069 12.7429 16.9749 12.5639 16.9749H12.5629C12.3839 16.9749 12.2049 16.9069 12.0679 16.7699V16.7679L8.10991 12.8109C7.97291 12.6749 7.90391 12.4959 7.90391 12.3159C7.90391 12.1369 7.97291 11.9579 8.10891 11.8209C8.24591 11.6839 8.42491 11.6159 8.60391 11.6159Z" fill="white"/>
</mask>
<g mask="url(#mask0)">
</g>
</svg>
