<svg width="25" height="25" viewBox="0 0 25 25" fill="none" xmlns="http://www.w3.org/2000/svg">
<path fill-rule="evenodd" clip-rule="evenodd" d="M22.5499 6.2673C22.7669 6.2673 22.9709 6.3673 23.1039 6.5393C23.2359 6.7103 23.2819 6.9333 23.2279 7.1423L21.1539 15.1903C21.0749 15.4993 20.7949 15.7153 20.4759 15.7153H9.99394L10.2609 16.8553H20.2879C20.7299 16.8553 21.0879 17.2123 21.0879 17.6543C21.0879 18.0963 20.7299 18.4543 20.2879 18.4543H9.63094L9.63061 18.4543L9.62894 18.4548L9.62794 18.4551L9.62694 18.4553C9.52694 18.4553 9.42994 18.4323 9.33894 18.3963C9.32199 18.3893 9.30675 18.3802 9.29141 18.3711C9.28052 18.3646 9.26957 18.3581 9.25794 18.3523C9.20094 18.3213 9.14594 18.2873 9.09694 18.2433C9.07439 18.2225 9.05485 18.1994 9.03505 18.176L9.03505 18.176L9.03504 18.176L9.02594 18.1653C8.98694 18.1193 8.95494 18.0713 8.92594 18.0173C8.90794 17.9823 8.89294 17.9463 8.87894 17.9073C8.87551 17.897 8.87079 17.8875 8.86605 17.8779C8.85973 17.8651 8.85337 17.8522 8.84994 17.8373L5.82594 4.9823H2.54994C2.10894 4.9823 1.74994 4.6253 1.74994 4.1833C1.74994 3.7413 2.10894 3.3833 2.54994 3.3833H6.33194C6.3483 3.3833 6.36307 3.38744 6.37787 3.39159C6.3893 3.39479 6.40074 3.39799 6.41294 3.3993C6.79194 3.3773 7.14694 3.6163 7.23694 4.0003L7.76994 6.2673H22.5499ZM9.68494 14.3153H19.9339L21.6469 7.6683H8.09994L9.44294 13.3773L9.68494 14.3153ZM10.8167 19.2397C10.1607 19.2397 9.62874 19.7717 9.62874 20.4277C9.62874 21.0847 10.1607 21.6167 10.8167 21.6167C11.4727 21.6167 12.0047 21.0847 12.0047 20.4277C12.0047 19.7717 11.4727 19.2397 10.8167 19.2397ZM17.9109 20.4277C17.9109 19.7717 18.4429 19.2397 19.0989 19.2397C19.7559 19.2397 20.2879 19.7717 20.2879 20.4277C20.2879 21.0847 19.7559 21.6167 19.0989 21.6167C18.4429 21.6167 17.9109 21.0847 17.9109 20.4277Z" fill="#999999"/>
<mask id="mask0" mask-type="alpha" maskUnits="userSpaceOnUse" x="1" y="3" width="23" height="19">
<path fill-rule="evenodd" clip-rule="evenodd" d="M22.5499 6.2673C22.7669 6.2673 22.9709 6.3673 23.1039 6.5393C23.2359 6.7103 23.2819 6.9333 23.2279 7.1423L21.1539 15.1903C21.0749 15.4993 20.7949 15.7153 20.4759 15.7153H9.99394L10.2609 16.8553H20.2879C20.7299 16.8553 21.0879 17.2123 21.0879 17.6543C21.0879 18.0963 20.7299 18.4543 20.2879 18.4543H9.63094L9.63061 18.4543L9.62894 18.4548L9.62794 18.4551L9.62694 18.4553C9.52694 18.4553 9.42994 18.4323 9.33894 18.3963C9.32199 18.3893 9.30675 18.3802 9.29141 18.3711C9.28052 18.3646 9.26957 18.3581 9.25794 18.3523C9.20094 18.3213 9.14594 18.2873 9.09694 18.2433C9.07439 18.2225 9.05485 18.1994 9.03505 18.176L9.03505 18.176L9.03504 18.176L9.02594 18.1653C8.98694 18.1193 8.95494 18.0713 8.92594 18.0173C8.90794 17.9823 8.89294 17.9463 8.87894 17.9073C8.87551 17.897 8.87079 17.8875 8.86605 17.8779C8.85973 17.8651 8.85337 17.8522 8.84994 17.8373L5.82594 4.9823H2.54994C2.10894 4.9823 1.74994 4.6253 1.74994 4.1833C1.74994 3.7413 2.10894 3.3833 2.54994 3.3833H6.33194C6.3483 3.3833 6.36307 3.38744 6.37787 3.39159C6.3893 3.39479 6.40074 3.39799 6.41294 3.3993C6.79194 3.3773 7.14694 3.6163 7.23694 4.0003L7.76994 6.2673H22.5499ZM9.68494 14.3153H19.9339L21.6469 7.6683H8.09994L9.44294 13.3773L9.68494 14.3153ZM10.8167 19.2397C10.1607 19.2397 9.62874 19.7717 9.62874 20.4277C9.62874 21.0847 10.1607 21.6167 10.8167 21.6167C11.4727 21.6167 12.0047 21.0847 12.0047 20.4277C12.0047 19.7717 11.4727 19.2397 10.8167 19.2397ZM17.9109 20.4277C17.9109 19.7717 18.4429 19.2397 19.0989 19.2397C19.7559 19.2397 20.2879 19.7717 20.2879 20.4277C20.2879 21.0847 19.7559 21.6167 19.0989 21.6167C18.4429 21.6167 17.9109 21.0847 17.9109 20.4277Z" fill="white"/>
</mask>
<g mask="url(#mask0)">
</g>
</svg>
