<svg width="25" height="25" viewBox="0 0 25 25" fill="none" xmlns="http://www.w3.org/2000/svg">
<path fill-rule="evenodd" clip-rule="evenodd" d="M19.8 19.5331V9.09711C19.8 8.7101 20.113 8.39711 20.5 8.39711C20.887 8.39711 21.2 8.7101 21.2 9.09711V20.2331C21.2 20.6191 20.887 20.9331 20.5 20.9331H15.636H14.964H4.49999C4.11299 20.9331 3.79999 20.6191 3.79999 20.2331L3.79999 9.09711C3.79999 8.7101 4.11299 8.39711 4.49999 8.39711C4.88699 8.39711 5.19999 8.7101 5.19999 9.09711L5.19999 19.5331H14.964H15.636H19.8ZM12.0692 4.2718C12.2062 4.13481 12.3852 4.0668 12.5642 4.0668C12.7432 4.0668 12.9222 4.13481 13.0602 4.27281L17.0192 8.23181C17.1552 8.3688 17.2242 8.5478 17.2242 8.7268C17.2242 8.90681 17.1552 9.08581 17.0182 9.22181C16.8812 9.35881 16.7022 9.42681 16.5232 9.42681C16.3442 9.42681 16.1652 9.35881 16.0282 9.22181L13.2642 6.45781V16.2748C13.2642 16.6618 12.9512 16.9748 12.5642 16.9748C12.1772 16.9748 11.8642 16.6618 11.8642 16.2748V6.45681L9.09919 9.22081C8.96219 9.35781 8.78319 9.42581 8.60519 9.42581C8.42519 9.42581 8.24619 9.35781 8.10919 9.22081C7.83519 8.94681 7.83619 8.50381 8.11019 8.2308L12.0682 4.27281L12.0692 4.2718Z" fill="#999999"/>
<mask id="mask0" mask-type="alpha" maskUnits="userSpaceOnUse" x="3" y="4" width="19" height="17">
<path fill-rule="evenodd" clip-rule="evenodd" d="M19.8 19.5331V9.09711C19.8 8.7101 20.113 8.39711 20.5 8.39711C20.887 8.39711 21.2 8.7101 21.2 9.09711V20.2331C21.2 20.6191 20.887 20.9331 20.5 20.9331H15.636H14.964H4.49999C4.11299 20.9331 3.79999 20.6191 3.79999 20.2331L3.79999 9.09711C3.79999 8.7101 4.11299 8.39711 4.49999 8.39711C4.88699 8.39711 5.19999 8.7101 5.19999 9.09711L5.19999 19.5331H14.964H15.636H19.8ZM12.0692 4.2718C12.2062 4.13481 12.3852 4.0668 12.5642 4.0668C12.7432 4.0668 12.9222 4.13481 13.0602 4.27281L17.0192 8.23181C17.1552 8.3688 17.2242 8.5478 17.2242 8.7268C17.2242 8.90681 17.1552 9.08581 17.0182 9.22181C16.8812 9.35881 16.7022 9.42681 16.5232 9.42681C16.3442 9.42681 16.1652 9.35881 16.0282 9.22181L13.2642 6.45781V16.2748C13.2642 16.6618 12.9512 16.9748 12.5642 16.9748C12.1772 16.9748 11.8642 16.6618 11.8642 16.2748V6.45681L9.09919 9.22081C8.96219 9.35781 8.78319 9.42581 8.60519 9.42581C8.42519 9.42581 8.24619 9.35781 8.10919 9.22081C7.83519 8.94681 7.83619 8.50381 8.11019 8.2308L12.0682 4.27281L12.0692 4.2718Z" fill="white"/>
</mask>
<g mask="url(#mask0)">
</g>
</svg>
